<?xml version="1.0" encoding="utf-8"?>
<!-- Generator: Adobe Illustrator 16.0.0, SVG Export Plug-In . SVG Version: 6.00 Build 0)  -->
<!DOCTYPE svg PUBLIC "-//W3C//DTD SVG 1.1//EN" "http://www.w3.org/Graphics/SVG/1.1/DTD/svg11.dtd">
<svg version="1.1" id="Layer_1" xmlns="http://www.w3.org/2000/svg" xmlns:xlink="http://www.w3.org/1999/xlink" x="0px" y="0px"
	 width="256.1px" height="82.55px" viewBox="0 0 256.1 82.55" enable-background="new 0 0 256.1 82.55" xml:space="preserve">
<g id="Layer_1_copy_2">
	<g opacity="0.6">
		<path d="M40.264,1.849c-18.479,0-34.528,18.865-34.528,37.504c0,20.673,12.616,41.348,34.528,41.348
			c21.914,0,34.417-20.675,34.417-41.348C74.681,20.714,58.745,1.849,40.264,1.849z M58.416,52.005
			c0,4.404-0.113,8.697-1.108,12.652c-1.989,7.795-6.531,13.217-17.043,13.217c-10.405,0-15.049-5.422-17.042-13.217
			c-0.997-3.955-1.216-8.248-1.216-12.652V27.379c0-4.066,0.662-7.908,1.66-11.296c1.992-6.891,6.748-11.409,16.599-11.409
			c9.739,0,14.276,4.518,16.491,11.409c1.108,3.389,1.661,7.23,1.661,11.296v24.626H58.416z M97.686,35.814
			c-4.19,0-6.931,3.177-6.931,7.076c0,3.896,2.738,7.074,6.931,7.074c4.191,0,6.931-3.178,6.931-7.074
			C104.615,38.991,101.877,35.814,97.686,35.814z M145.56,3.542h-35.746v2.825h10.957v69.814h-10.957v2.822h36.854v-2.822h-11.732
			V44.777h12.617c12.727,0,28.885-4.633,28.885-20.449C176.437,6.479,159.615,3.542,145.56,3.542z M147.882,41.953h-12.947V6.367
			h12.947c12.396,0,12.951,9.714,12.951,17.849C160.833,33.479,158.616,41.953,147.882,41.953z M196.46,35.03
			c-4.193,0-6.934,3.176-6.934,7.075c0,3.896,2.738,7.074,6.934,7.074c4.192,0,6.932-3.178,6.932-7.074
			C203.392,38.207,200.652,35.03,196.46,35.03z M250.365,6.367V3.543h-36.08v2.824h10.959v69.814h-10.959v2.824h36.08v-2.824
			h-10.957V6.367H250.365z"/>
	</g>
</g>
<g id="Layer_1_copy">
	<g>
		<g>
			<g>
				<path fill="#FFFFFF" d="M40.264,0.416c-18.479,0-34.528,18.865-34.528,37.504c0,20.671,12.616,41.348,34.528,41.348
					c21.914,0,34.417-20.677,34.417-41.348C74.681,19.281,58.745,0.416,40.264,0.416z M58.416,50.574
					c0,4.403-0.113,8.696-1.108,12.651c-1.989,7.795-6.531,13.217-17.043,13.217c-10.405,0-15.049-5.422-17.042-13.217
					c-0.997-3.955-1.216-8.248-1.216-12.651V25.946c0-4.066,0.662-7.908,1.66-11.296c1.992-6.891,6.748-11.409,16.599-11.409
					c9.739,0,14.276,4.518,16.491,11.409c1.108,3.389,1.661,7.23,1.661,11.296v24.628H58.416z M97.686,34.381
					c-4.19,0-6.931,3.177-6.931,7.076c0,3.897,2.738,7.076,6.931,7.076c4.191,0,6.931-3.179,6.931-7.076
					C104.615,37.558,101.877,34.381,97.686,34.381z M145.56,2.109h-35.746v2.825h10.957v69.813h-10.957v2.822h36.854v-2.822h-11.732
					V43.343h12.617c12.727,0,28.885-4.632,28.885-20.448C176.437,5.046,159.615,2.109,145.56,2.109z M147.882,40.52h-12.947V4.934
					h12.947c12.396,0,12.951,9.714,12.951,17.849C160.833,32.046,158.616,40.52,147.882,40.52z M196.46,33.597
					c-4.193,0-6.934,3.176-6.934,7.075c0,3.897,2.738,7.076,6.934,7.076c4.192,0,6.932-3.179,6.932-7.076
					C203.392,36.774,200.652,33.597,196.46,33.597z M250.365,4.934V2.11h-36.08v2.824h10.959v69.813h-10.959v2.824h36.08v-2.824
					h-10.957V4.934H250.365z"/>
			</g>
		</g>
	</g>
</g>
</svg>
